<svg width="192" height="192" viewBox="0 0 192 192" fill="none" xmlns="http://www.w3.org/2000/svg">
<path d="M95.9249 41.7734C92.0932 43.2801 90.8576 45.0854 90.851 49.3966C90.831 62.3149 90.8389 75.2333 90.8359 88.1517C90.8357 88.9404 90.8359 89.7292 90.8359 90.708C89.4709 90.708 88.2403 90.708 86.6813 90.708C86.6813 90.1085 86.6822 89.4113 86.6812 88.714C86.6667 78.3791 86.6742 68.0441 86.6264 57.7094C86.6077 53.6519 84.1672 50.8501 80.705 50.7373C77.0218 50.6174 74.2108 53.4953 74.1915 57.5531C74.151 66.0991 74.1798 74.6454 74.1704 83.1916C74.1624 90.5453 74.2703 97.9029 74.0404 105.25C73.9778 107.249 73.2381 109.434 72.1691 111.146C70.6868 113.519 68.1273 113.548 66.2433 111.436C64.4287 109.402 62.8797 107.14 61.1768 105.007C58.7613 101.982 56.0096 99.2489 51.9459 98.7885C50.1356 98.5834 48.0006 98.9356 46.3859 99.7513C43.2039 101.359 42.9443 103.253 44.8773 106.188C51.7525 116.63 58.5509 127.121 65.532 137.493C67.4487 140.341 69.7764 142.954 72.1625 145.446C73.325 146.66 73.9623 147.754 73.8181 149.414C73.6876 150.915 73.7905 152.436 73.7905 153.77C65.1172 149.947 56.6472 145.78 47.8488 142.456C39.0303 139.125 29.8843 136.636 20.6016 133.688C20.6016 89.5693 20.6016 44.9532 20.6016 0.0129395C47.9532 2.84674 72.9333 11.8603 95.8033 27.2544C95.9295 32.2683 95.9272 37.0208 95.9249 41.7734Z" fill="#15639F"/>
<path d="M96.0649 41.8138C95.9276 37.0208 95.9299 32.2682 95.9111 27.3492C100.057 24.6435 104.128 21.934 108.408 19.5944C126.826 9.52527 146.592 3.39946 167.387 0.376127C168.629 0.195501 169.89 0.139595 171.424 0C171.424 0.861008 171.424 1.56709 171.425 2.27314C171.431 45.6005 171.433 88.9279 171.465 132.255C171.466 133.63 171.389 134.507 169.667 134.911C154.378 138.497 139.666 143.664 125.704 150.824C125.473 150.943 125.214 151.007 124.257 151.356C124.816 149.882 124.945 148.672 125.61 147.927C130.974 141.916 133.295 134.825 133.481 126.962C133.584 122.592 133.488 118.216 133.63 113.847C133.664 112.811 134.072 111.636 134.686 110.792C138.875 105.034 143.165 99.3489 147.42 93.6381C147.619 93.3716 147.789 93.0842 147.976 92.809C149.232 90.9601 150.099 88.9825 148.733 86.8971C147.231 84.6039 144.909 83.7817 142.238 84.3232C140.01 84.7747 137.836 85.4823 135.641 86.0865C134.956 86.2751 134.28 86.4964 133.221 86.8177C133.221 85.4843 133.222 84.4555 133.221 83.4267C133.218 80.1806 133.273 76.9331 133.196 73.6887C133.112 70.1659 130.762 67.5588 127.858 67.6074C125.187 67.6521 123.037 70.2635 123.009 73.6789C122.958 79.8397 122.951 86.0014 123.002 92.1621C123.015 93.668 122.425 94.1035 120.965 94.0738C119.375 94.0414 119.332 93.1475 119.333 91.981C119.342 82.5073 119.32 73.0336 119.307 63.5599C119.304 61.8374 119.328 60.1143 119.286 58.3928C119.266 57.6045 119.184 56.8043 119.011 56.0357C118.318 52.9615 115.508 50.8681 112.573 51.1887C109.843 51.487 107.638 53.9876 107.621 57.0695C107.579 64.6216 107.631 72.1742 107.641 79.7266C107.646 83.4905 107.642 87.2544 107.642 91.153C106.312 91.153 105.143 91.153 103.657 91.153C103.657 90.2495 103.658 89.4185 103.657 88.5875C103.636 75.3376 103.638 62.0876 103.582 48.8378C103.563 44.314 100.659 41.6329 96.0649 41.8138Z" fill="#43ABDD"/>
<path d="M95.9168 174.165C99.6576 171.829 103.343 169.4 107.15 167.173C120.135 159.578 133.781 153.326 148.117 148.681C157.546 145.626 167.164 143.133 176.734 140.515C178.305 140.085 178.667 139.443 178.665 137.947C178.623 100.852 178.63 63.7577 178.628 26.663C178.628 25.8093 178.628 24.9556 178.628 24.017C181.765 24.017 184.791 23.722 187.728 24.1014C190.572 24.4687 191.962 26.76 191.964 29.9899C191.98 57.4797 191.988 84.9696 191.996 112.459C192 124.383 192.003 136.306 191.994 148.229C191.991 151.337 190.672 153.142 187.638 153.786C172.236 157.059 157.323 161.904 142.293 167.32C141.1 167.71 140.182 168.042 139.263 168.375C139.06 168.495 138.858 168.614 138.282 168.859C137.688 169.05 137.466 169.116 137.245 169.182C137.06 169.292 136.875 169.403 136.29 169.641C130.865 171.978 125.84 174.188 120.815 176.398C120.661 176.506 120.508 176.614 120.061 176.835C119.638 176.946 119.517 176.986 119.406 177.068C119.406 177.068 119.302 177.217 119.232 177.257C119.162 177.297 119.159 177.277 119.159 177.277C119.047 177.354 118.935 177.431 118.65 177.59C118.476 177.673 118.472 177.633 118.472 177.633C118.317 177.718 118.162 177.803 117.77 177.981C117.533 178.075 117.539 178.07 117.539 178.07C117.422 178.149 117.305 178.227 117.006 178.389C116.824 178.472 116.801 178.463 116.801 178.463C116.675 178.539 116.549 178.616 116.231 178.78C116.04 178.869 116.036 178.834 116.036 178.834C115.881 178.914 115.725 178.994 115.197 179.171C112.454 180.566 110.083 181.862 107.712 183.158C107.611 183.261 107.511 183.363 107.147 183.582C106.486 183.923 106.088 184.148 105.69 184.373C105.603 184.47 105.515 184.567 105.203 184.765C104.836 184.948 104.694 185.031 104.551 185.114C104.45 185.214 104.348 185.314 103.986 185.523C103.576 185.729 103.427 185.826 103.277 185.923C103.183 186.027 103.089 186.131 102.756 186.348C102.366 186.556 102.213 186.652 102.06 186.749C101.986 186.843 101.911 186.937 101.573 187.137C100.033 188.262 98.7877 189.323 97.463 190.276C97.0523 190.572 96.427 190.578 95.915 190.532C95.9257 184.953 95.9212 179.559 95.9168 174.165Z" fill="#45ABDB"/>
<path d="M95.8044 174.084C95.9215 179.559 95.926 184.953 95.7809 190.522C94.18 189.545 92.7619 188.348 91.2716 187.246C83.8364 181.749 75.5706 177.645 67.1821 173.854C54.5844 168.162 41.6881 163.15 28.3533 159.362C21.4923 157.413 14.5282 155.813 7.60057 154.096C2.0175 152.711 0.657749 151.898 0.671985 145.694C0.760729 107.031 0.716197 68.3669 0.721813 29.7035C0.72196 28.7784 0.791492 27.8534 0.907231 26.8418C1.01203 26.6039 1.03819 26.4527 1.06435 26.3015C1.06435 26.3015 1.03979 26.2102 1.17494 26.1204C1.37285 25.8965 1.43563 25.7622 1.49839 25.6279C1.6807 25.4125 1.86302 25.1971 2.28417 24.9458C2.71548 24.7531 2.90799 24.5964 3.1005 24.4397C3.1005 24.4397 3.11301 24.481 3.28619 24.5001C5.87803 24.5263 8.29884 24.597 10.7146 24.5176C12.2512 24.4671 13.0061 24.9555 12.8485 26.5543C12.7775 27.2756 12.8381 28.0094 12.8381 28.7375C12.8383 65.0109 12.8345 101.284 12.8647 137.558C12.8653 138.317 13.257 139.076 13.4662 139.836C17.2231 140.765 20.9924 141.648 24.735 142.63C50.1171 149.287 74.1095 159.002 95.8044 174.084Z" fill="#16649F"/>
<path d="M124.864 113.05C118.129 120.98 111.507 128.821 104.835 136.621C100.606 141.565 96.6758 141.581 92.1401 136.854C87.1052 131.608 82.0067 126.421 76.9517 121.194C74.6368 118.8 74.3167 117.645 75.3577 115.826C76.767 113.364 79.7937 111.858 82.327 112.607C83.6453 112.996 84.9407 113.687 86.0478 114.503C89.8657 117.317 93.5962 120.247 97.4393 123.193C111.019 109.826 125.112 97.0989 142.823 89.1772C143.067 89.4313 143.311 89.6854 143.555 89.9394C137.355 97.6071 131.156 105.275 124.864 113.05Z" fill="#17649F"/>
<path d="M0.828834 26.9281C0.791691 27.8532 0.722159 28.7782 0.722012 29.7032C0.716396 68.3667 0.760928 107.03 0.672184 145.694C0.657947 151.897 2.0177 152.711 7.60077 154.095C14.5284 155.813 21.4925 157.413 28.3535 159.362C41.6883 163.149 54.5846 168.161 67.1823 173.854C75.5708 177.644 83.8366 181.749 91.2718 187.246C92.7621 188.348 94.1802 189.544 95.766 190.707C96.4275 190.578 97.0528 190.572 97.4635 190.276C98.7882 189.322 100.034 188.262 101.406 187.205C99.6705 188.778 97.8394 190.389 96.0074 192C93.418 189.968 91.0335 187.83 88.3902 186.07C78.8311 179.705 68.4173 174.933 57.8164 170.544C40.8079 163.503 23.3055 157.984 5.27794 154.093C1.43139 153.263 0.0181709 151.438 0.0176781 147.289C0.0133186 110.849 0.0219395 74.4089 0.0252643 37.9689C0.0255109 35.3187 -0.0373955 32.6672 0.0344022 30.019C0.0624563 28.9847 0.381348 27.958 0.67812 26.8791C0.78844 26.8304 0.828834 26.9281 0.828834 26.9281Z" fill="#3D7397"/>
<path d="M13.5051 139.653C13.2576 139.076 12.866 138.317 12.8653 137.557C12.8352 101.284 12.839 65.0107 12.8388 28.7373C12.8388 28.0092 12.7781 27.2754 12.8492 26.5541C13.0067 24.9553 12.2518 24.4669 10.7152 24.5174C8.29951 24.5968 5.8787 24.5261 3.26562 24.4948C4.48373 24.2328 5.88865 23.8738 7.31072 23.7867C9.24652 23.6682 11.1955 23.7572 13.5433 23.7572C13.5433 62.4034 13.5433 100.937 13.5051 139.653Z" fill="#30698E"/>
<path d="M139.382 168.399C140.182 168.043 141.101 167.71 142.112 167.34C141.303 167.676 140.402 168.049 139.382 168.399Z" fill="#3D7397"/>
<path d="M2.97079 24.46C2.90783 24.5962 2.71532 24.7529 2.38574 24.9084C2.44621 24.7649 2.64372 24.6227 2.97079 24.46Z" fill="#30698E"/>
<path d="M0.907091 26.8418C0.828495 26.9284 0.788102 26.8306 0.772461 26.7801C0.787215 26.6439 0.817609 26.5582 0.956106 26.387C1.03805 26.4526 1.01189 26.6039 0.907091 26.8418Z" fill="#30698E"/>
<path d="M1.39102 25.6785C1.43651 25.7622 1.37373 25.8964 1.21269 26.0902C1.17052 26.0095 1.22663 25.8693 1.39102 25.6785Z" fill="#30698E"/>
</svg>
